# xmcd
#
# Track frame offsets:
#	150
#	19597
#	38599
#	61410
#	79333
#	97343
#	112972
#	130257
#	145311
#	163712
#	201872
#	219059
#
# Disc length: 3142 seconds
#
# Revision: 1
# Processed by: cddbd v1.5.2PL0 Copyright (c) Steve Scherf et al.
# Submitted via: audiograbber 1.83.01
#
DISCID=a30c440c
DTITLE=Sait Ucar - Sanane
DYEAR=2009
DGENRE=Other
TTITLE0=Sanane
TTITLE1=Arpalik
TTITLE2=Cinar
TTITLE3=Kriz
TTITLE4=Ay Isigi
TTITLE5=Garau
TTITLE6=Bir vermis bir yokmus
TTITLE7=Sevda kötü hastalik
TTITLE8=Rizede bir Pazar var
TTITLE9=Agasar
TTITLE10=Yildizlar Aya yakin
TTITLE11=Trabzon Spor
EXTD=
EXTT0=
EXTT1=
EXTT2=
EXTT3=
EXTT4=
EXTT5=
EXTT6=
EXTT7=
EXTT8=
EXTT9=
EXTT10=
EXTT11=
PLAYORDER=
